<mxfile host="app.diagrams.net" modified="2023-03-18T18:23:23.741Z" agent="5.0 (Windows)" etag="LqN2Z39VhLntSB7N_kBo" version="21.0.6" type="github">
  <diagram id="R2lEEEUBdFMjLlhIrx00" name="Page-1">
    <mxGraphModel dx="880" dy="462" grid="1" gridSize="10" guides="1" tooltips="1" connect="1" arrows="1" fold="1" page="1" pageScale="1" pageWidth="850" pageHeight="1100" math="0" shadow="0" extFonts="Permanent Marker^https://fonts.googleapis.com/css?family=Permanent+Marker">
      <root>
        <mxCell id="0" />
        <mxCell id="1" parent="0" />
        <mxCell id="YdARfsgj66W7FU9EiuvG-1" value="departamento" style="whiteSpace=wrap;html=1;align=center;" parent="1" vertex="1">
          <mxGeometry x="460" y="89" width="100" height="40" as="geometry" />
        </mxCell>
        <mxCell id="YdARfsgj66W7FU9EiuvG-2" value="empregado" style="whiteSpace=wrap;html=1;align=center;" parent="1" vertex="1">
          <mxGeometry x="120" y="89" width="100" height="40" as="geometry" />
        </mxCell>
        <mxCell id="YdARfsgj66W7FU9EiuvG-3" value="possui" style="shape=rhombus;perimeter=rhombusPerimeter;whiteSpace=wrap;html=1;align=center;" parent="1" vertex="1">
          <mxGeometry x="280" y="79" width="120" height="60" as="geometry" />
        </mxCell>
        <mxCell id="YdARfsgj66W7FU9EiuvG-4" value="" style="endArrow=none;html=1;rounded=0;exitX=1;exitY=0.5;exitDx=0;exitDy=0;entryX=0;entryY=0.5;entryDx=0;entryDy=0;" parent="1" source="YdARfsgj66W7FU9EiuvG-3" target="YdARfsgj66W7FU9EiuvG-1" edge="1">
          <mxGeometry relative="1" as="geometry">
            <mxPoint x="340" y="189" as="sourcePoint" />
            <mxPoint x="500" y="189" as="targetPoint" />
          </mxGeometry>
        </mxCell>
        <mxCell id="YdARfsgj66W7FU9EiuvG-5" value="" style="endArrow=none;html=1;rounded=0;exitX=1;exitY=0.5;exitDx=0;exitDy=0;entryX=0;entryY=0.5;entryDx=0;entryDy=0;" parent="1" source="YdARfsgj66W7FU9EiuvG-2" target="YdARfsgj66W7FU9EiuvG-3" edge="1">
          <mxGeometry relative="1" as="geometry">
            <mxPoint x="340" y="189" as="sourcePoint" />
            <mxPoint x="500" y="189" as="targetPoint" />
          </mxGeometry>
        </mxCell>
        <mxCell id="YdARfsgj66W7FU9EiuvG-6" value="A" style="text;strokeColor=none;fillColor=none;spacingLeft=4;spacingRight=4;overflow=hidden;rotatable=0;points=[[0,0.5],[1,0.5]];portConstraint=eastwest;fontSize=12;whiteSpace=wrap;html=1;" parent="1" vertex="1">
          <mxGeometry x="100" y="59" width="40" height="30" as="geometry" />
        </mxCell>
        <mxCell id="YdARfsgj66W7FU9EiuvG-7" value="(0,N)" style="text;strokeColor=none;fillColor=none;spacingLeft=4;spacingRight=4;overflow=hidden;rotatable=0;points=[[0,0.5],[1,0.5]];portConstraint=eastwest;fontSize=12;whiteSpace=wrap;html=1;" parent="1" vertex="1">
          <mxGeometry x="220" y="89" width="40" height="30" as="geometry" />
        </mxCell>
        <mxCell id="YdARfsgj66W7FU9EiuvG-8" value="(1,N)" style="text;strokeColor=none;fillColor=none;spacingLeft=4;spacingRight=4;overflow=hidden;rotatable=0;points=[[0,0.5],[1,0.5]];portConstraint=eastwest;fontSize=12;whiteSpace=wrap;html=1;" parent="1" vertex="1">
          <mxGeometry x="420" y="89" width="40" height="30" as="geometry" />
        </mxCell>
        <mxCell id="YdARfsgj66W7FU9EiuvG-12" value="departamento" style="whiteSpace=wrap;html=1;align=center;" parent="1" vertex="1">
          <mxGeometry x="460" y="179" width="100" height="40" as="geometry" />
        </mxCell>
        <mxCell id="YdARfsgj66W7FU9EiuvG-13" value="empregado" style="whiteSpace=wrap;html=1;align=center;" parent="1" vertex="1">
          <mxGeometry x="120" y="179" width="100" height="40" as="geometry" />
        </mxCell>
        <mxCell id="YdARfsgj66W7FU9EiuvG-14" value="possui" style="shape=rhombus;perimeter=rhombusPerimeter;whiteSpace=wrap;html=1;align=center;" parent="1" vertex="1">
          <mxGeometry x="280" y="169" width="120" height="60" as="geometry" />
        </mxCell>
        <mxCell id="YdARfsgj66W7FU9EiuvG-15" value="" style="endArrow=none;html=1;rounded=0;exitX=1;exitY=0.5;exitDx=0;exitDy=0;entryX=0;entryY=0.5;entryDx=0;entryDy=0;" parent="1" source="YdARfsgj66W7FU9EiuvG-14" target="YdARfsgj66W7FU9EiuvG-12" edge="1">
          <mxGeometry relative="1" as="geometry">
            <mxPoint x="340" y="279" as="sourcePoint" />
            <mxPoint x="500" y="279" as="targetPoint" />
          </mxGeometry>
        </mxCell>
        <mxCell id="YdARfsgj66W7FU9EiuvG-16" value="" style="endArrow=none;html=1;rounded=0;exitX=1;exitY=0.5;exitDx=0;exitDy=0;entryX=0;entryY=0.5;entryDx=0;entryDy=0;" parent="1" source="YdARfsgj66W7FU9EiuvG-13" target="YdARfsgj66W7FU9EiuvG-14" edge="1">
          <mxGeometry relative="1" as="geometry">
            <mxPoint x="340" y="279" as="sourcePoint" />
            <mxPoint x="500" y="279" as="targetPoint" />
          </mxGeometry>
        </mxCell>
        <mxCell id="YdARfsgj66W7FU9EiuvG-17" value="B" style="text;strokeColor=none;fillColor=none;spacingLeft=4;spacingRight=4;overflow=hidden;rotatable=0;points=[[0,0.5],[1,0.5]];portConstraint=eastwest;fontSize=12;whiteSpace=wrap;html=1;" parent="1" vertex="1">
          <mxGeometry x="100" y="149" width="40" height="30" as="geometry" />
        </mxCell>
        <mxCell id="YdARfsgj66W7FU9EiuvG-18" value="(0,N)" style="text;strokeColor=none;fillColor=none;spacingLeft=4;spacingRight=4;overflow=hidden;rotatable=0;points=[[0,0.5],[1,0.5]];portConstraint=eastwest;fontSize=12;whiteSpace=wrap;html=1;" parent="1" vertex="1">
          <mxGeometry x="220" y="179" width="40" height="30" as="geometry" />
        </mxCell>
        <mxCell id="YdARfsgj66W7FU9EiuvG-19" value="(0,N)" style="text;strokeColor=none;fillColor=none;spacingLeft=4;spacingRight=4;overflow=hidden;rotatable=0;points=[[0,0.5],[1,0.5]];portConstraint=eastwest;fontSize=12;whiteSpace=wrap;html=1;" parent="1" vertex="1">
          <mxGeometry x="420" y="179" width="40" height="30" as="geometry" />
        </mxCell>
        <mxCell id="YdARfsgj66W7FU9EiuvG-20" value="estado" style="whiteSpace=wrap;html=1;align=center;" parent="1" vertex="1">
          <mxGeometry x="460" y="269" width="100" height="40" as="geometry" />
        </mxCell>
        <mxCell id="YdARfsgj66W7FU9EiuvG-21" value="governador" style="whiteSpace=wrap;html=1;align=center;" parent="1" vertex="1">
          <mxGeometry x="120" y="269" width="100" height="40" as="geometry" />
        </mxCell>
        <mxCell id="YdARfsgj66W7FU9EiuvG-22" value="possui" style="shape=rhombus;perimeter=rhombusPerimeter;whiteSpace=wrap;html=1;align=center;" parent="1" vertex="1">
          <mxGeometry x="280" y="259" width="120" height="60" as="geometry" />
        </mxCell>
        <mxCell id="YdARfsgj66W7FU9EiuvG-23" value="" style="endArrow=none;html=1;rounded=0;exitX=1;exitY=0.5;exitDx=0;exitDy=0;entryX=0;entryY=0.5;entryDx=0;entryDy=0;" parent="1" source="YdARfsgj66W7FU9EiuvG-22" target="YdARfsgj66W7FU9EiuvG-20" edge="1">
          <mxGeometry relative="1" as="geometry">
            <mxPoint x="340" y="369" as="sourcePoint" />
            <mxPoint x="500" y="369" as="targetPoint" />
          </mxGeometry>
        </mxCell>
        <mxCell id="YdARfsgj66W7FU9EiuvG-24" value="" style="endArrow=none;html=1;rounded=0;exitX=1;exitY=0.5;exitDx=0;exitDy=0;entryX=0;entryY=0.5;entryDx=0;entryDy=0;" parent="1" source="YdARfsgj66W7FU9EiuvG-21" target="YdARfsgj66W7FU9EiuvG-22" edge="1">
          <mxGeometry relative="1" as="geometry">
            <mxPoint x="340" y="369" as="sourcePoint" />
            <mxPoint x="500" y="369" as="targetPoint" />
          </mxGeometry>
        </mxCell>
        <mxCell id="YdARfsgj66W7FU9EiuvG-25" value="C" style="text;strokeColor=none;fillColor=none;spacingLeft=4;spacingRight=4;overflow=hidden;rotatable=0;points=[[0,0.5],[1,0.5]];portConstraint=eastwest;fontSize=12;whiteSpace=wrap;html=1;" parent="1" vertex="1">
          <mxGeometry x="100" y="239" width="40" height="30" as="geometry" />
        </mxCell>
        <mxCell id="YdARfsgj66W7FU9EiuvG-26" value="(1,1)" style="text;strokeColor=none;fillColor=none;spacingLeft=4;spacingRight=4;overflow=hidden;rotatable=0;points=[[0,0.5],[1,0.5]];portConstraint=eastwest;fontSize=12;whiteSpace=wrap;html=1;" parent="1" vertex="1">
          <mxGeometry x="220" y="269" width="40" height="30" as="geometry" />
        </mxCell>
        <mxCell id="YdARfsgj66W7FU9EiuvG-27" value="(1,1)" style="text;strokeColor=none;fillColor=none;spacingLeft=4;spacingRight=4;overflow=hidden;rotatable=0;points=[[0,0.5],[1,0.5]];portConstraint=eastwest;fontSize=12;whiteSpace=wrap;html=1;" parent="1" vertex="1">
          <mxGeometry x="420" y="269" width="40" height="30" as="geometry" />
        </mxCell>
        <mxCell id="YdARfsgj66W7FU9EiuvG-36" value="poltrona" style="whiteSpace=wrap;html=1;align=center;" parent="1" vertex="1">
          <mxGeometry x="460" y="349" width="100" height="40" as="geometry" />
        </mxCell>
        <mxCell id="YdARfsgj66W7FU9EiuvG-37" value="passageiro" style="whiteSpace=wrap;html=1;align=center;" parent="1" vertex="1">
          <mxGeometry x="120" y="349" width="100" height="40" as="geometry" />
        </mxCell>
        <mxCell id="YdARfsgj66W7FU9EiuvG-38" value="possui" style="shape=rhombus;perimeter=rhombusPerimeter;whiteSpace=wrap;html=1;align=center;" parent="1" vertex="1">
          <mxGeometry x="280" y="339" width="120" height="60" as="geometry" />
        </mxCell>
        <mxCell id="YdARfsgj66W7FU9EiuvG-39" value="" style="endArrow=none;html=1;rounded=0;exitX=1;exitY=0.5;exitDx=0;exitDy=0;entryX=0;entryY=0.5;entryDx=0;entryDy=0;" parent="1" source="YdARfsgj66W7FU9EiuvG-38" target="YdARfsgj66W7FU9EiuvG-36" edge="1">
          <mxGeometry relative="1" as="geometry">
            <mxPoint x="340" y="449" as="sourcePoint" />
            <mxPoint x="500" y="449" as="targetPoint" />
          </mxGeometry>
        </mxCell>
        <mxCell id="YdARfsgj66W7FU9EiuvG-40" value="" style="endArrow=none;html=1;rounded=0;exitX=1;exitY=0.5;exitDx=0;exitDy=0;entryX=0;entryY=0.5;entryDx=0;entryDy=0;" parent="1" source="YdARfsgj66W7FU9EiuvG-37" target="YdARfsgj66W7FU9EiuvG-38" edge="1">
          <mxGeometry relative="1" as="geometry">
            <mxPoint x="340" y="449" as="sourcePoint" />
            <mxPoint x="500" y="449" as="targetPoint" />
          </mxGeometry>
        </mxCell>
        <mxCell id="YdARfsgj66W7FU9EiuvG-41" value="D" style="text;strokeColor=none;fillColor=none;spacingLeft=4;spacingRight=4;overflow=hidden;rotatable=0;points=[[0,0.5],[1,0.5]];portConstraint=eastwest;fontSize=12;whiteSpace=wrap;html=1;" parent="1" vertex="1">
          <mxGeometry x="100" y="319" width="50" height="30" as="geometry" />
        </mxCell>
        <mxCell id="YdARfsgj66W7FU9EiuvG-42" value="(1,1)" style="text;strokeColor=none;fillColor=none;spacingLeft=4;spacingRight=4;overflow=hidden;rotatable=0;points=[[0,0.5],[1,0.5]];portConstraint=eastwest;fontSize=12;whiteSpace=wrap;html=1;" parent="1" vertex="1">
          <mxGeometry x="220" y="349" width="40" height="30" as="geometry" />
        </mxCell>
        <mxCell id="YdARfsgj66W7FU9EiuvG-43" value="(0,1)" style="text;strokeColor=none;fillColor=none;spacingLeft=4;spacingRight=4;overflow=hidden;rotatable=0;points=[[0,0.5],[1,0.5]];portConstraint=eastwest;fontSize=12;whiteSpace=wrap;html=1;" parent="1" vertex="1">
          <mxGeometry x="420" y="349" width="40" height="30" as="geometry" />
        </mxCell>
        <mxCell id="YdARfsgj66W7FU9EiuvG-44" value="efeitoColateral" style="whiteSpace=wrap;html=1;align=center;" parent="1" vertex="1">
          <mxGeometry x="460" y="439" width="100" height="40" as="geometry" />
        </mxCell>
        <mxCell id="YdARfsgj66W7FU9EiuvG-45" value="remedio" style="whiteSpace=wrap;html=1;align=center;" parent="1" vertex="1">
          <mxGeometry x="120" y="439" width="100" height="40" as="geometry" />
        </mxCell>
        <mxCell id="YdARfsgj66W7FU9EiuvG-46" value="possui" style="shape=rhombus;perimeter=rhombusPerimeter;whiteSpace=wrap;html=1;align=center;" parent="1" vertex="1">
          <mxGeometry x="280" y="429" width="120" height="60" as="geometry" />
        </mxCell>
        <mxCell id="YdARfsgj66W7FU9EiuvG-47" value="" style="endArrow=none;html=1;rounded=0;exitX=1;exitY=0.5;exitDx=0;exitDy=0;entryX=0;entryY=0.5;entryDx=0;entryDy=0;" parent="1" source="YdARfsgj66W7FU9EiuvG-46" target="YdARfsgj66W7FU9EiuvG-44" edge="1">
          <mxGeometry relative="1" as="geometry">
            <mxPoint x="340" y="539" as="sourcePoint" />
            <mxPoint x="500" y="539" as="targetPoint" />
          </mxGeometry>
        </mxCell>
        <mxCell id="YdARfsgj66W7FU9EiuvG-48" value="" style="endArrow=none;html=1;rounded=0;exitX=1;exitY=0.5;exitDx=0;exitDy=0;entryX=0;entryY=0.5;entryDx=0;entryDy=0;" parent="1" source="YdARfsgj66W7FU9EiuvG-45" target="YdARfsgj66W7FU9EiuvG-46" edge="1">
          <mxGeometry relative="1" as="geometry">
            <mxPoint x="340" y="539" as="sourcePoint" />
            <mxPoint x="500" y="539" as="targetPoint" />
          </mxGeometry>
        </mxCell>
        <mxCell id="YdARfsgj66W7FU9EiuvG-49" value="E" style="text;strokeColor=none;fillColor=none;spacingLeft=4;spacingRight=4;overflow=hidden;rotatable=0;points=[[0,0.5],[1,0.5]];portConstraint=eastwest;fontSize=12;whiteSpace=wrap;html=1;" parent="1" vertex="1">
          <mxGeometry x="100" y="409" width="40" height="30" as="geometry" />
        </mxCell>
        <mxCell id="YdARfsgj66W7FU9EiuvG-50" value="(0,N)" style="text;strokeColor=none;fillColor=none;spacingLeft=4;spacingRight=4;overflow=hidden;rotatable=0;points=[[0,0.5],[1,0.5]];portConstraint=eastwest;fontSize=12;whiteSpace=wrap;html=1;" parent="1" vertex="1">
          <mxGeometry x="220" y="439" width="40" height="30" as="geometry" />
        </mxCell>
        <mxCell id="YdARfsgj66W7FU9EiuvG-51" value="(1,N)" style="text;strokeColor=none;fillColor=none;spacingLeft=4;spacingRight=4;overflow=hidden;rotatable=0;points=[[0,0.5],[1,0.5]];portConstraint=eastwest;fontSize=12;whiteSpace=wrap;html=1;" parent="1" vertex="1">
          <mxGeometry x="420" y="439" width="40" height="30" as="geometry" />
        </mxCell>
        <mxCell id="YdARfsgj66W7FU9EiuvG-52" value="fornecedor" style="whiteSpace=wrap;html=1;align=center;" parent="1" vertex="1">
          <mxGeometry x="460" y="529" width="100" height="40" as="geometry" />
        </mxCell>
        <mxCell id="YdARfsgj66W7FU9EiuvG-53" value="fornecedor Hardware" style="whiteSpace=wrap;html=1;align=center;" parent="1" vertex="1">
          <mxGeometry x="120" y="529" width="100" height="40" as="geometry" />
        </mxCell>
        <mxCell id="YdARfsgj66W7FU9EiuvG-54" value="possui" style="shape=rhombus;perimeter=rhombusPerimeter;whiteSpace=wrap;html=1;align=center;" parent="1" vertex="1">
          <mxGeometry x="280" y="519" width="120" height="60" as="geometry" />
        </mxCell>
        <mxCell id="YdARfsgj66W7FU9EiuvG-55" value="" style="endArrow=none;html=1;rounded=0;exitX=1;exitY=0.5;exitDx=0;exitDy=0;entryX=0;entryY=0.5;entryDx=0;entryDy=0;" parent="1" source="YdARfsgj66W7FU9EiuvG-54" target="YdARfsgj66W7FU9EiuvG-52" edge="1">
          <mxGeometry relative="1" as="geometry">
            <mxPoint x="340" y="629" as="sourcePoint" />
            <mxPoint x="500" y="629" as="targetPoint" />
          </mxGeometry>
        </mxCell>
        <mxCell id="YdARfsgj66W7FU9EiuvG-56" value="" style="endArrow=none;html=1;rounded=0;exitX=1;exitY=0.5;exitDx=0;exitDy=0;entryX=0;entryY=0.5;entryDx=0;entryDy=0;" parent="1" source="YdARfsgj66W7FU9EiuvG-53" target="YdARfsgj66W7FU9EiuvG-54" edge="1">
          <mxGeometry relative="1" as="geometry">
            <mxPoint x="340" y="629" as="sourcePoint" />
            <mxPoint x="500" y="629" as="targetPoint" />
          </mxGeometry>
        </mxCell>
        <mxCell id="YdARfsgj66W7FU9EiuvG-57" value="F" style="text;strokeColor=none;fillColor=none;spacingLeft=4;spacingRight=4;overflow=hidden;rotatable=0;points=[[0,0.5],[1,0.5]];portConstraint=eastwest;fontSize=12;whiteSpace=wrap;html=1;" parent="1" vertex="1">
          <mxGeometry x="100" y="499" width="40" height="30" as="geometry" />
        </mxCell>
        <mxCell id="YdARfsgj66W7FU9EiuvG-58" value="(1,1)" style="text;strokeColor=none;fillColor=none;spacingLeft=4;spacingRight=4;overflow=hidden;rotatable=0;points=[[0,0.5],[1,0.5]];portConstraint=eastwest;fontSize=12;whiteSpace=wrap;html=1;" parent="1" vertex="1">
          <mxGeometry x="220" y="529" width="40" height="30" as="geometry" />
        </mxCell>
        <mxCell id="YdARfsgj66W7FU9EiuvG-59" value="(0,1)" style="text;strokeColor=none;fillColor=none;spacingLeft=4;spacingRight=4;overflow=hidden;rotatable=0;points=[[0,0.5],[1,0.5]];portConstraint=eastwest;fontSize=12;whiteSpace=wrap;html=1;" parent="1" vertex="1">
          <mxGeometry x="420" y="529" width="40" height="30" as="geometry" />
        </mxCell>
        <mxCell id="lz_mdxryoPL5KlFru-BC-1" value="1 &lt;br&gt;&lt;span dir=&quot;ltr&quot; role=&quot;presentation&quot; style=&quot;left: 14.22%; top: 10.46%; font-size: calc(var(--scale-factor)*11.00px); font-family: sans-serif; transform: scaleX(0.900126);&quot;&gt;Para cada uma das representações de dados de um&lt;/span&gt;&lt;br role=&quot;presentation&quot;&gt;&lt;span dir=&quot;ltr&quot; role=&quot;presentation&quot; style=&quot;left: 14.22%; top: 12.24%; font-size: calc(var(--scale-factor)*11.00px); font-family: sans-serif; transform: scaleX(0.913921);&quot;&gt;problema seguir, crie o DER:&lt;/span&gt;&lt;br&gt;" style="text;html=1;strokeColor=none;fillColor=none;align=center;verticalAlign=middle;whiteSpace=wrap;rounded=0;" vertex="1" parent="1">
          <mxGeometry x="120" y="19" width="380" height="30" as="geometry" />
        </mxCell>
      </root>
    </mxGraphModel>
  </diagram>
</mxfile>
